<?xml version="1.0" standalone="no"?>
<!DOCTYPE svg PUBLIC "-//W3C//DTD SVG 20010904//EN"
 "http://www.w3.org/TR/2001/REC-SVG-20010904/DTD/svg10.dtd">
<svg version="1.0" xmlns="http://www.w3.org/2000/svg"
 width="16.000000pt" height="16.000000pt" viewBox="0 0 16.000000 16.000000"
 preserveAspectRatio="xMidYMid meet">
<metadata>
Created by potrace 1.11, written by Peter Selinger 2001-2013
</metadata>
<g transform="translate(0.000000,16.000000) scale(0.008000,-0.008000)"
fill="#000000" stroke="none">
<path d="M0 1000 l0 -1000 1000 0 1000 0 0 1000 0 1000 -1000 0 -1000 0 0
-1000z m939 543 c-4 -27 -8 -65 -8 -85 l-1 -38 70 0 70 0 0 53 c0 28 -4 67 -9
85 l-10 32 118 0 c100 0 120 -3 134 -17 8 -10 81 -183 162 -385 122 -307 146
-374 143 -410 l-3 -43 -242 -3 -243 -2 0 52 c0 29 -3 77 -6 106 l-7 52 -104 0
c-76 0 -105 -3 -109 -13 -2 -7 -6 -55 -7 -105 l-2 -92 -245 2 -245 3 -3 38
c-3 29 29 118 144 410 81 204 154 380 162 390 13 14 33 17 132 17 l117 0 -8
-47z"/>
<path d="M925 1318 c-3 -7 -9 -62 -14 -123 -6 -80 -5 -112 3 -117 15 -10 158
-10 174 0 10 7 10 32 3 121 -6 61 -13 116 -16 121 -9 15 -145 13 -150 -2z"/>
</g>
</svg>
