<?xml version="1.0"?>
<svg width="65.59375" height="55.375" xmlns="http://www.w3.org/2000/svg">
 <metadata id="metadata4326">image/svg+xml</metadata>

 <g>
  <title>background</title>
  <rect fill="none" id="canvas_background" height="57.375" width="67.59375" y="-1" x="-1"/>
 </g>
 <g>
  <title>Layer 1</title>
  <g stroke="null" id="g4383">
   <path stroke="null" fill="#19408b" fill-rule="evenodd" id="path4256" d="m-198.6866,194.568268c0,14.598511 12.33136,26.66449 27.256027,26.66449l334.783905,0c14.92569,0 27.262054,-12.065979 27.262054,-26.66449l0,-179.786049c0,-14.603424 -12.336365,-26.664471 -27.262054,-26.664471l-334.783905,0c-14.925674,0 -27.256027,12.061047 -27.256027,26.664471l0,179.786049"/>
   <path stroke="#ffffff" fill="none" stroke-width="0.2637" stroke-miterlimit="2.613" id="path4258" d="m-198.6866,194.568268c0,14.598511 12.33136,26.66449 27.256027,26.66449l334.783905,0c14.92569,0 27.262054,-12.065979 27.262054,-26.66449l0,-179.786049c0,-14.603424 -12.336365,-26.664471 -27.262054,-26.664471l-334.783905,0c-14.925674,0 -27.256027,12.061047 -27.256027,26.664471l0,179.786049"/>
   <path stroke="null" fill="#ffffff" fill-rule="evenodd" id="path4260" d="m-190.507568,41.446686l0,-26.664467c0,-10.157707 8.567001,-18.663754 19.076996,-18.663754l121.510242,0c10.384354,0 19.077009,8.50703 19.077009,18.663754l0,26.664467c0,10.157707 -8.692656,18.658836 -19.077009,18.658836l-121.510242,0c-10.508987,0 -19.076996,-8.501129 -19.076996,-18.658836l-5.456039,0l5.456039,0m-5.456039,0c0,13.073669 11.166367,23.996246 24.533035,23.996246l121.510242,0c13.366669,0 24.533049,-10.9216 24.533049,-23.996246l0,-26.664467c0,-13.084488 -11.16638,-24.001167 -24.533049,-24.001167l-121.510242,0c-13.366669,0 -24.533035,10.916679 -24.533035,24.001167l0,26.664467z"/>
   <path stroke="null" fill="#ffffff" fill-rule="evenodd" id="path4262" d="m-14.618956,41.446686l0,-26.664467c0,-10.157707 8.702683,-18.663754 19.088058,-18.663754l158.88423,0c10.515045,0 19.082062,8.50703 19.082062,18.663754l0,26.664467c0,10.157707 -8.567017,18.658836 -19.082062,18.658836l-158.88423,0c-10.385375,0 -19.088058,-8.501129 -19.088058,-18.658836l-5.445984,0l5.445984,0m-5.445984,0c0,13.073669 11.161331,23.996246 24.534042,23.996246l158.88423,0c13.372711,0 24.534058,-10.9216 24.534058,-23.996246l0,-26.664467c0,-13.084488 -11.161346,-24.001167 -24.534058,-24.001167l-158.88423,0c-13.372711,0 -24.534042,10.916679 -24.534042,24.001167l0,26.664467z"/>
   <path stroke="null" fill="#ffffff" fill-rule="evenodd" id="path4264" d="m-168.696533,36.494659c2.593338,1.266266 6.745667,2.288727 9.733002,2.288727c4.157364,0 7.527679,-3.43309 7.527679,-7.372498c0,-4.060326 -3.371323,-7.362671 -7.527679,-7.362671c-1.428329,0 -3.503998,0.385391 -4.80368,0.885811l0.389008,-3.802757l10.384354,0l0,-4.066223l-14.279358,0l-0.776993,10.285515l3.241653,2.409645c1.557999,-1.012619 4.027679,-1.64576 5.844025,-1.64576c1.81633,0 3.375336,1.518936 3.375336,3.29644c0,1.78241 -1.559006,3.301346 -3.375336,3.301346c-2.340027,0 -5.844025,-0.758972 -7.9207,-1.777496l-1.81131,3.559921"/>
   <path stroke="null" fill="#ffffff" fill-rule="evenodd" id="path4266" d="m-138.452148,31.917198c-0.652344,-2.410629 -0.652344,-5.8339 0,-8.122627c0.51767,-1.904327 2.334991,-3.301346 4.280991,-3.301346c2.081711,0 3.899033,1.397018 4.416702,3.301346c0.647324,2.288727 0.647324,5.711998 0,8.122627c-0.51767,1.781433 -2.334,3.17453 -4.416702,3.17453c-1.945999,0 -3.764328,-1.392113 -4.280991,-3.17453l-4.022659,0.63707l4.022659,-0.63707m-4.022659,0.638046c1.035309,3.555008 4.540329,6.228142 8.30365,6.228142c3.899033,0 7.40303,-2.673134 8.439362,-6.228142c0.775986,-2.795036 0.775986,-6.723625 0,-9.39283c-1.035324,-3.559906 -4.540329,-6.223206 -8.439362,-6.223206c-3.763321,0 -7.267319,2.6633 -8.30365,6.223206c-0.782028,2.668221 -0.782028,6.597794 0,9.39283z"/>
   <path stroke="null" fill="#ffffff" fill-rule="evenodd" id="path4268" d="m-111.713776,31.917198c-0.781021,-2.410629 -0.781021,-5.8339 0,-8.122627c0.518654,-1.904327 2.334991,-3.301346 4.28199,-3.301346c1.947006,0 3.898033,1.397018 4.416695,3.301346c0.647324,2.288727 0.647324,5.711998 0,8.122627c-0.518661,1.781433 -2.469688,3.17453 -4.416695,3.17453c-1.946999,0 -3.763336,-1.392113 -4.28199,-3.17453l-4.022667,0.63707l4.022667,-0.63707m-4.022667,0.638046c1.035316,3.555008 4.541321,6.228142 8.304657,6.228142c3.763336,0 7.403038,-2.673134 8.438354,-6.228142c0.782021,-2.795036 0.782021,-6.723625 0,-9.39283c-1.034317,-3.559906 -4.674019,-6.223206 -8.438354,-6.223206c-3.764336,0 -7.268333,2.6633 -8.304657,6.223206c-0.781013,2.668221 -0.781013,6.597794 0,9.39283z"/>
   <path stroke="null" fill="#ffffff" fill-rule="evenodd" id="path4270" d="m-76.018402,38.783386l4.028702,0l0,-9.150002c0,-1.518936 1.423309,-2.790115 2.982315,-2.790115c1.687668,0 2.98735,1.271179 2.98735,2.790115l0,9.150002l4.151325,0l0,-9.150002c0,-1.518936 1.299683,-2.790115 2.858688,-2.790115c1.687668,0 2.98735,1.271179 2.98735,2.790115l0,9.150002l4.151321,0l0,-9.78215c0,-2.541397 -1.817337,-5.205681 -4.280991,-6.091476c-2.593323,-1.017548 -5.71637,-0.25856 -7.5327,1.64576c-1.94701,-2.156006 -5.580662,-2.795044 -8.303654,-1.265289l0,-0.764877l-4.028702,0l0,16.258034"/>
   <path stroke="null" fill="#ffffff" fill-rule="evenodd" id="polyline4272" d="m7.192095,49.447395l17.911987,0l1.687683,-42.665894l-5.192688,0l-14.406982,42.665894"/>
   <path stroke="null" fill="#ffffff" fill-rule="evenodd" id="polyline4274" d="m31.208452,49.447395l17.77733,0l-6.487335,-20.06176l13.108337,-14.476593l4.287048,10.156723l0,-18.284264l-18.694031,0l10.519043,4.193054l-12.724365,7.747063l-3.893005,-11.940117l-5.19269,0l1.299667,42.665894"/>
   <path stroke="null" fill="#ffffff" fill-rule="evenodd" id="path4276" d="m-190.507568,194.568268l0,-99.792664c0,-10.156708 8.567001,-18.668655 19.076996,-18.668655l334.783905,0c10.515045,0 19.082001,8.511948 19.082001,18.668655l0,99.792664c0,10.156738 -8.566956,18.663788 -19.082001,18.663788l-334.783905,0c-10.508987,0 -19.076996,-8.50705 -19.076996,-18.663788l-5.456039,0l5.456039,0m-5.456039,0c0,13.078613 11.166367,24.000214 24.533035,24.000214l334.783905,0c13.372711,0 24.534058,-10.9216 24.534058,-24.000214l0,-99.792664c0,-13.083481 -11.161346,-24.00116 -24.534058,-24.00116l-334.783905,0c-13.366669,0 -24.533035,10.916687 -24.533035,24.00116l0,99.792664z"/>
   <path stroke="null" fill="#ffffff" fill-rule="evenodd" id="polyline4278" d="m153.169037,170.567123l-40.117096,-7.868973l15.449371,-10.026962l-28.29837,-24.638229l9.603302,-9.392838l25.191437,27.802933l10.121002,-15.235565l8.050354,39.359634"/>
   <path stroke="#1d2d28" fill="none" stroke-width="0.2637" stroke-miterlimit="2.613" id="path4280" d="m-198.6866,194.568268c0,14.598511 12.33136,26.66449 27.256027,26.66449l334.783905,0c14.92569,0 27.262054,-12.065979 27.262054,-26.66449l0,-179.786049c0,-14.603424 -12.336365,-26.664471 -27.262054,-26.664471l-334.783905,0c-14.925674,0 -27.256027,12.061047 -27.256027,26.664471l0,179.786049z"/>
   <path stroke="null" fill="#ffffff" id="path4284" d="m95.884735,31.546562c0,0.985092 -0.209106,1.878761 -0.624237,2.681976c-0.416107,0.802238 -1.002136,1.493378 -1.756012,2.07048c-0.755859,0.578072 -1.663544,1.027367 -2.725006,1.348846c-1.063446,0.32148 -2.238495,0.481735 -3.530121,0.481735c-1.379089,0 -2.680756,-0.208427 -3.907074,-0.626251c-1.226288,-0.417831 -2.18927,-0.990013 -2.888824,-1.718513c-0.766968,-0.749146 -1.358002,-1.718513 -1.774139,-2.906128c-0.415131,-1.188614 -0.623199,-2.489288 -0.623199,-3.902054c0,-2.161903 0.508636,-4.185188 1.526855,-6.068863c1.018219,-1.884659 2.434509,-3.457672 4.251831,-4.720993c2.319916,-1.562195 5.001709,-2.343781 8.043335,-2.343781l0.590027,0l0,4.302177l-0.524689,0c-4.135254,0 -7.069336,1.788315 -8.798218,5.362976c0.700623,-0.192696 1.396179,-0.343117 2.085724,-0.450272c0.688538,-0.10717 1.360992,-0.160255 2.018372,-0.160255c1.006195,0 2.007324,0.117981 3.004456,0.352951c0.995117,0.235947 1.810303,0.524986 2.445526,0.867111c0.98407,0.557442 1.761078,1.316422 2.330994,2.279884c0.568909,0.965431 0.854401,2.014435 0.854401,3.148972zm-4.33429,-0.063904c0,-0.685242 -0.349792,-1.236778 -1.050385,-1.65461c-0.700623,-0.416847 -1.706757,-0.626251 -3.019501,-0.626251c-0.635284,0 -1.233368,0.038338 -1.789185,0.112068c-0.558899,0.075706 -0.991119,0.187782 -1.297699,0.337212c-0.504578,0.192703 -0.885529,0.449295 -1.148926,0.770782c-0.263336,0.32148 -0.39502,0.674423 -0.39502,1.059814c0,0.727516 0.416168,1.300682 1.247437,1.717529c0.831268,0.417831 1.925873,0.626251 3.282867,0.626251c1.291626,0 2.309875,-0.20842 3.05368,-0.626251c0.744812,-0.415863 1.11673,-0.989029 1.11673,-1.716545z"/>
   <path stroke="null" fill="#ffffff" id="path4286" d="m106.128357,37.743225l0,-14.641754l-2.167114,0l0,-4.367065c0.393982,-0.192696 0.710632,-0.369659 0.951843,-0.530891c0.240265,-0.160255 0.442291,-0.337219 0.607117,-0.529907c0.163849,-0.192696 0.311615,-0.407021 0.442291,-0.641991c0.130676,-0.235947 0.284485,-0.524002 0.459351,-0.867119l4.169434,0l0,21.578728l-4.462921,0z"/>
   <path stroke="null" fill="#ffffff" id="path4288" d="m135.346466,37.743225l-2.1008,-5.073929l-8.700714,0l-2.100769,5.073929l-4.695129,0l8.863525,-21.578728l4.563416,0l8.863586,21.578728l-4.693115,0zm-6.336548,-15.412529l-2.692841,6.037399l5.15448,0l-2.461639,-6.037399z"/>
   <path stroke="null" fill="#ffffff" id="path4290" d="m161.807404,31.321426c0,1.177788 -0.290466,2.264145 -0.869446,3.259079c-0.580994,0.995911 -1.374054,1.771591 -2.380249,2.329033c-1.029297,0.55645 -2.112823,0.834679 -3.250702,0.834679l-0.984009,0l-10.276825,0l0,-21.578735l10.275787,0c0.481476,0 0.891571,0.010818 1.23233,0.031456c0.338745,0.021637 0.65033,0.063911 0.935791,0.128799c0.283478,0.063896 0.551849,0.150414 0.804138,0.256592c0.252289,0.107162 0.519684,0.245781 0.804138,0.417831c0.919708,0.492546 1.652496,1.204338 2.200287,2.135353c0.546814,0.93103 0.820221,1.921043 0.820221,2.970047c0,1.648705 -0.591034,3.039841 -1.774139,4.174362c1.642456,1.328217 2.462677,3.008385 2.462677,5.041504zm-5.022827,-9.215866c0,-1.091278 -0.668365,-1.637901 -2.003265,-1.637901l-6.400909,0l0,3.692642l6.007874,0c0.700623,0 1.275574,-0.197609 1.723877,-0.593811c0.448303,-0.396202 0.672424,-0.882851 0.672424,-1.46093zm0.689575,9.215866c0,-0.534828 -0.125641,-1.038193 -0.37793,-1.509117c-0.251312,-0.470917 -0.618195,-0.823853 -1.099701,-1.059807c-0.240204,-0.107162 -0.48645,-0.181877 -0.737732,-0.225143c-0.252319,-0.042274 -0.563904,-0.063904 -0.936829,-0.063904l-5.941559,0l0,4.9776l6.565765,0c0.81015,0 1.43335,-0.192696 1.870575,-0.578087c0.437286,-0.385384 0.65741,-0.898582 0.65741,-1.541542z"/>
   <path stroke="null" fill="#ffffff" id="path4294" d="m-130.420883,132.426575l-2.557144,-6.174057l-10.586395,0l-2.557129,6.174057l-5.713348,0l10.787415,-26.258438l5.552521,0l10.786423,26.258438l-5.712341,0zm-2.756165,-35.323883l-5.593735,6.017746l-4.554398,0l2.596344,-6.017746l7.551788,0zm-4.954453,16.566742l-3.275833,7.346924l6.271225,0l-2.995392,-7.346924z"/>
   <path stroke="null" fill="#ffffff" id="path4296" d="m-107.890137,132.426575l-5.952583,0l-7.309547,-19.108124l5.552521,0l4.874039,12.230133l4.514198,-12.230133l5.632935,0l-7.311562,19.108124z"/>
   <path stroke="null" fill="#ffffff" id="path4298" d="m-92.86795,132.426575l0,-19.108124l5.352478,0l0,19.108124l-5.352478,0zm5.273071,-24.070953c0,0.677368 -0.253296,1.277069 -0.759888,1.798126c-0.505615,0.521072 -1.131836,0.781601 -1.876648,0.781601c-0.692566,0 -1.291626,-0.260529 -1.798233,-0.781601c-0.506607,-0.521057 -0.758911,-1.120758 -0.758911,-1.798126c0,-0.755051 0.252304,-1.372467 0.758911,-1.856171c0.506607,-0.480743 1.105667,-0.722595 1.798233,-0.722595c0.744812,0 1.371033,0.241852 1.876648,0.722595c0.506592,0.483704 0.759888,1.102097 0.759888,1.856171z"/>
   <path stroke="null" fill="#ffffff" id="path4300" d="m-76.808456,132.426575l0,-24.616608l5.3535,-2.032135l0,26.648743l-5.3535,0z"/>
   <path stroke="null" fill="#ffffff" id="path4302" d="m-50.600811,132.426575l0,-0.625275c-0.933792,0.365723 -1.83844,0.60463 -2.716965,0.72261c-0.87851,0.116989 -1.691681,0.175964 -2.4375,0.175964c-1.091614,0 -2.090744,-0.156311 -2.995407,-0.468933c-0.904648,-0.312653 -1.691696,-0.756042 -2.357117,-1.330185c-0.666412,-0.572189 -1.179047,-1.255463 -1.537888,-2.050812c-0.358841,-0.795334 -0.539764,-1.659515 -0.539764,-2.599396c0,-0.989029 0.206055,-1.901367 0.620163,-2.73407c0.41214,-0.83371 0.978043,-1.556305 1.696732,-2.168808c0.719711,-0.611496 1.571075,-1.094208 2.557144,-1.446167c0.986053,-0.351974 2.050522,-0.526978 3.196411,-0.526978c0.559875,0 1.251434,0.052109 2.07666,0.156326c0.825256,0.103241 1.638428,0.29985 2.437531,0.585938c-0.054276,-0.912338 -0.399048,-1.569061 -1.03833,-1.974121c-0.639282,-0.403076 -1.451462,-0.604614 -2.437515,-0.604614c-1.864594,0 -3.715088,0.495483 -5.552536,1.484512l-1.958054,-4.14093c0.719696,-0.365738 1.392151,-0.677368 2.018372,-0.938904c0.625198,-0.259537 1.238342,-0.468933 1.837433,-0.625259c0.599075,-0.156311 1.192139,-0.273315 1.778137,-0.350983c0.586014,-0.077667 1.212219,-0.116989 1.87764,-0.116989c2.689835,0 4.787598,0.643951 6.292343,1.934799c1.503723,1.288879 2.257599,3.275787 2.257599,5.95874l0,11.683533l-5.075089,0zm0,-7.697922c-0.799103,-0.287064 -1.618317,-0.501389 -2.456619,-0.644913c-0.83931,-0.143539 -1.525833,-0.215317 -2.057571,-0.215317c-0.853378,0 -1.565033,0.20253 -2.13797,0.605621c-0.571945,0.403061 -0.858414,0.905457 -0.858414,1.504181c0,0.599716 0.345779,1.120773 1.03833,1.563187c0.691559,0.44339 1.503723,0.664581 2.436508,0.664581c0.559891,0 1.179062,-0.06488 1.857559,-0.195633c0.680496,-0.129776 1.405212,-0.403091 2.178177,-0.819931l0,-2.461777z"/>
   <path stroke="null" fill="#ffffff" fill-rule="evenodd" id="path4306" d="m-136.341309,171.603348c1.208206,0.262482 2.154068,1.191544 2.286758,2.374252c0.269379,1.053909 -0.402054,2.372284 -1.347931,2.897278c-3.904068,1.975128 -9.02034,0.788483 -11.440781,-2.762589l-4.445831,2.888443c3.904053,5.797516 12.117249,7.771637 18.308044,4.485046c2.962219,-1.584824 4.852936,-5.135895 4.31015,-8.296661c-0.536743,-3.291504 -3.3703,-6.059021 -6.731583,-6.721649l-7.001968,-1.050003c-1.207199,-0.124847 -2.153061,-1.185638 -2.286743,-2.235626c-0.133698,-1.054901 0.542786,-2.236618 1.61731,-2.636749c3.096893,-1.575958 7.268341,-0.656723 9.421387,1.980011l4.176453,-3.297409c-3.634659,-4.469315 -10.500946,-5.92337 -15.891632,-3.419342c-3.091888,1.31839 -4.976563,4.735748 -4.574493,8.029236c0.402069,3.292511 3.226578,6.190781 6.5979,6.852432l7.00296,0.91333"/>
   <path stroke="null" fill="#ffffff" fill-rule="evenodd" id="path4308" d="m-116.289284,169.366714c0.268379,-0.524979 0.810158,-1.312469 1.219261,-1.706711c0.535751,-0.661652 1.615303,-1.192535 2.420441,-1.192535c0.940819,0 1.879646,0.530884 2.420433,1.192535c0.537758,0.394241 1.074516,1.181732 1.348923,1.706711l-7.409058,0l12.385628,5.005127l-12.385628,-5.005127m12.386627,5.005127c0.407097,-3.030014 -0.537758,-6.84259 -2.286751,-9.479355c-1.346909,-1.711624 -4.038742,-3.029022 -6.459175,-3.029022c-2.292786,0 -4.982597,1.317398 -6.463203,3.029022c-3.496971,4.348389 -3.496971,10.932419 0.267372,15.144135c1.482613,1.711655 4.04277,2.762604 6.195831,2.762604c2.286758,0 4.84288,-1.049988 6.190804,-2.762604c0.675476,-0.661621 1.347931,-1.974121 1.75,-2.899246l-5.250984,-1.049988c0,0.263489 -0.134697,0.65184 -0.270386,0.914307c-0.540787,0.529907 -1.610268,0.930069 -2.420433,0.930069c-0.805138,0 -1.749992,-0.400162 -2.292786,-0.930069c-0.670448,-0.650818 -1.476578,-1.705719 -1.743958,-2.629852l12.783669,0z"/>
   <path stroke="null" fill="#ffffff" fill-rule="evenodd" id="path4310" d="m-84.248428,176.739441c-0.939835,1.054916 -2.55513,1.585815 -3.903061,1.324295c-1.208191,-0.268402 -2.555115,-1.324295 -3.090881,-2.50502c-0.404068,-1.57988 -0.404068,-3.954147 0,-5.530121c0.535767,-1.323273 1.88269,-2.368362 3.090881,-2.4991c1.347931,-0.268387 2.963226,0.263489 3.903061,1.175827l0,8.034119l5.389694,-14.345825l-5.389694,14.345825m5.390686,-14.345825l-5.389679,0l0,0.262497c-2.286758,-0.661652 -5.517349,-0.393234 -7.671417,0.788467c-2.153061,1.185654 -4.037743,3.68576 -4.713211,5.922394c-0.269386,1.975098 -0.269386,4.873367 0,6.720673c0.676476,2.369354 2.561157,4.868469 4.713211,5.923355c2.154068,1.181717 5.383652,1.580887 7.671417,0.788483l0,0.261505c0,1.313461 -0.805145,2.505997 -1.884689,3.030991c-1.07251,0.529907 -2.555115,0.394226 -3.63266,-0.394226l-3.093903,4.211716c2.556137,1.848282 6.324493,2.236618 9.149002,0.924149c2.829544,-1.450104 4.852936,-4.609909 4.852936,-7.772629l0,-20.667374l-0.001007,0z"/>
   <path stroke="null" fill="#ffffff" fill-rule="evenodd" id="path4312" d="m-58.804958,167.659012c1.883667,2.762604 1.883667,6.711853 0,9.341705c-0.536758,0.662643 -1.347931,1.061783 -2.147034,1.061783c-0.945847,0 -1.757019,-0.399139 -2.292786,-1.061783c-1.884693,-2.629852 -1.884693,-6.579102 0,-9.341705c0.535767,-0.661636 1.346939,-1.053909 2.292786,-1.053909c0.799103,0 1.610275,0.39325 2.147034,1.053909l4.171417,-2.897278l-4.171417,2.897278m4.171417,-2.897278c-1.336868,-1.975113 -4.0327,-3.293488 -6.318451,-3.293488c-2.428482,0 -5.11829,1.318375 -6.465229,3.293488c-3.237625,4.341507 -3.237625,10.795746 0,15.138229c1.346939,1.974136 4.036747,3.292511 6.465229,3.292511c2.285751,0 4.981583,-1.318375 6.318451,-3.292511c3.23262,-4.341492 3.23262,-10.796722 0,-15.138229z"/>
   <path stroke="null" fill="#ffffff" fill-rule="evenodd" id="polyline4314" d="m-45.340801,162.125977l7.404037,20.934784l5.654053,0l7.269316,-20.934784l-5.654037,0l-4.439802,13.43251l-4.581528,-13.43251l-5.652039,0"/>
   <path stroke="null" fill="#ffffff" fill-rule="evenodd" id="rect4316" d="m-15.457029,162.130127l5.249985,0l0,20.929871l-5.249985,0l0,-20.929871z"/>
   <path stroke="null" fill="#ffffff" fill-rule="evenodd" id="path4318" d="m-12.763441,160.680756c1.48262,0 2.830566,-1.18663 2.830566,-2.761612c0,-1.454056 -1.348953,-2.772415 -2.830566,-2.772415c-1.614288,0 -2.828522,1.318359 -2.828522,2.772415c0,1.574982 1.214233,2.761612 2.828522,2.761612"/>
   <path stroke="null" fill="#ffffff" fill-rule="evenodd" id="path4320" d="m11.065233,177.137619c-1.61528,0.794373 -4.03775,1.187637 -5.926453,0.92514c-0.938828,-0.131744 -1.744964,-1.061783 -1.744964,-1.976105c0,-1.054886 0.807159,-1.847305 1.744964,-2.109802c1.889709,-0.263474 4.311172,0.135681 5.926453,0.918259l0,2.242508l5.384644,5.922379l-5.384644,-5.922379m5.384644,5.92337l0,-12.901627c-0.269363,-4.866501 -4.713181,-8.68988 -9.695801,-8.295654c-2.152039,0 -4.976562,0.923157 -6.867264,2.235641l2.834564,4.085892c1.079544,-0.787491 2.825485,-1.319366 4.032699,-1.319366c1.615311,-0.261505 3.366302,0.531876 4.176453,1.712616c0,0.125824 0.134705,0.262497 0.134705,0.39325l0,1.185669c-1.884689,-0.655762 -4.709198,-1.054916 -6.73259,-0.918259c-3.226578,0.519104 -5.781692,3.554031 -5.781692,6.846527c0,3.288574 2.555115,6.185837 5.781692,6.84259c2.024399,0.130768 4.8479,-0.263489 6.73259,-0.91922l0,1.048981l5.384644,0l0,0.00296z"/>
  </g>
 </g>
</svg>